<svg xmlns="http://www.w3.org/2000/svg" width="48" height="48" viewBox="0 0 900 900" version="1.1">
	<path d="M 458.384 132.021 C 399.574 137.713, 352.472 159.384, 310.637 200 C 278.152 231.537, 256.208 263.706, 237.987 306.500 C 234.072 315.694, 225.189 341.513, 223.562 348.425 C 222.738 351.930, 221.340 352.897, 239.758 337.213 C 252.108 326.696, 253.292 325.374, 257.040 317.920 C 266.992 298.126, 284.252 271.305, 298.558 253.401 C 338.844 202.985, 381.806 173.202, 430.407 161.998 C 450.414 157.386, 481.201 155.709, 502.789 158.055 C 546.758 162.834, 587.893 182.280, 619.019 213 C 647.385 240.997, 665.740 274.152, 673.062 310.621 C 675.778 324.146, 676.790 352.170, 675.086 366.658 C 671.174 399.927, 658.887 433.128, 641.281 458 C 632.843 469.920, 612.269 490.551, 600.692 498.700 C 551.702 533.186, 490.324 537.972, 449.040 510.526 C 445.275 508.024, 438.664 502.241, 434.348 497.676 C 415.278 477.509, 405.986 456.355, 404.183 429.007 L 403.424 417.500 401.473 427.500 C 397.316 448.805, 399.507 476.252, 406.609 491.840 C 413.464 506.887, 429.026 524.568, 443.104 533.305 C 451.045 538.234, 467.533 544.970, 479.500 548.175 C 496.347 552.687, 521.561 553.004, 542.445 548.968 C 564.213 544.761, 591.893 533.676, 608.202 522.634 L 614.904 518.096 627.429 531.162 C 639.339 543.586, 639.882 544.331, 638.477 546.336 C 637.633 547.542, 637 550.679, 637 553.662 C 637 558.342, 637.427 559.373, 641.156 563.689 C 649.684 573.560, 722.602 647.255, 725.145 648.573 C 729.317 650.734, 735.197 651.293, 740.042 649.990 C 743.619 649.027, 746.542 646.786, 754.837 638.645 C 760.523 633.065, 765.810 627.285, 766.587 625.800 C 768.385 622.363, 768.408 613.893, 766.630 609.718 C 765.265 606.513, 683.592 521.922, 680.012 520.007 C 677.511 518.668, 671.691 518.728, 668.626 520.124 C 666.496 521.095, 665.840 520.912, 663.829 518.782 C 662.548 517.425, 657.032 511.768, 651.572 506.210 L 641.643 496.106 647.630 488.803 C 660.960 472.542, 671.983 455.605, 678.741 441 C 692.990 410.204, 697.557 392.549, 700.172 358.163 C 703.873 309.489, 687.591 256.043, 657.178 217.039 C 621.960 171.872, 568.828 141.736, 510 133.562 C 496.462 131.681, 470.043 130.892, 458.384 132.021 M 425.692 199.494 C 384.967 206.724, 348.218 227.080, 316.932 259.738 C 303.554 273.702, 286.419 297.752, 288.421 299.755 C 288.974 300.308, 300.790 298.864, 316.881 296.278 L 320.263 295.734 312.979 304.117 C 289.681 330.930, 279.095 359.164, 278.717 395.500 C 278.553 411.261, 279.818 420.092, 284.227 433.970 L 287.235 443.440 291.470 431.470 C 299.364 409.160, 306.876 394.261, 317.612 379.620 C 323.419 371.701, 345.591 348.258, 346.456 349.123 C 346.701 349.368, 345.331 354.503, 343.413 360.534 C 335.312 385.998, 332.160 401.915, 331.339 421.500 C 330.211 448.432, 334.997 469.596, 347.297 492.065 L 351.500 499.742 351.559 484.121 C 351.695 448.156, 362.951 419.310, 387.699 391.500 C 408.454 368.176, 433.677 350.465, 489.177 320.244 L 512.853 307.351 505.764 307.161 C 483.847 306.572, 464.783 294.430, 458.409 277 C 457.456 274.394, 456.736 269.302, 456.698 264.902 L 456.632 257.305 447.066 255.059 C 418.834 248.432, 412 246.639, 412 245.859 C 412 245.386, 412.472 245, 413.048 245 C 413.624 245, 420.262 244.278, 427.798 243.395 C 437.855 242.216, 446.688 241.922, 461 242.289 C 486.628 242.947, 495.256 244.547, 531.507 255.367 C 547.075 260.014, 563.522 262.744, 578.473 263.164 C 592.474 263.557, 592.707 263.361, 588.489 254.745 C 578.781 234.919, 550.114 214.797, 518.372 205.529 C 499.806 200.107, 483.231 197.778, 460.500 197.396 C 441.670 197.080, 438.073 197.296, 425.692 199.494 M 484.500 259.490 C 482.850 260.266, 480.195 262.006, 478.600 263.357 C 475.883 265.659, 475.737 266.158, 476.267 271.294 C 478.554 293.456, 506.609 303.284, 520.524 286.799 C 523.316 283.492, 526.937 276.507, 526.978 274.349 C 526.996 273.412, 520.844 269, 519.520 269 C 519.319 269, 518.662 270.495, 518.059 272.322 C 516.295 277.666, 510.949 282.139, 505.605 282.741 C 496.581 283.758, 492.501 278.186, 493.216 265.821 L 493.669 258 490.585 258.039 C 488.888 258.061, 486.150 258.713, 484.500 259.490 M 574.844 275.394 C 568.062 277.816, 562.548 281.762, 551 292.458 C 536.291 306.081, 526.015 314.185, 513.500 322.033 C 480.303 342.852, 470.827 350.584, 459.003 366.500 C 448.370 380.814, 442.554 395.783, 441.074 412.650 C 440.151 423.173, 440.648 439, 441.902 439 C 442.239 439, 443.551 435.288, 444.818 430.750 C 455.467 392.614, 484.104 357.681, 518.789 340.515 C 534.491 332.745, 538.901 331.782, 561.257 331.243 C 585.817 330.650, 596.107 332.167, 608.041 338.140 C 621.184 344.719, 628.165 354.722, 629.672 369.133 C 630.246 374.631, 630.410 374.939, 631.997 373.502 C 635.020 370.767, 640.844 356.748, 642.584 348.018 C 645.741 332.183, 643.230 314.120, 636.193 302.038 C 632.283 295.326, 620.386 283.958, 613.419 280.276 C 610.074 278.509, 604.692 276.373, 601.458 275.531 C 594.336 273.676, 579.862 273.601, 574.844 275.394 M 250.710 376.743 C 246.195 391.891, 245.540 396.719, 245.520 415 C 245.505 428.150, 245.950 434.613, 247.310 441 C 253.456 469.867, 268.528 500.106, 289.436 525.517 C 331.879 577.102, 412.427 617.560, 502.270 632.421 C 510.097 633.715, 519.425 635.030, 523 635.342 L 529.500 635.910 517.362 631.570 C 501.573 625.925, 452.647 606.471, 433.500 598.224 C 372.043 571.755, 330.513 542.945, 300.177 505.735 C 279.792 480.730, 262.097 447.353, 255.361 421.201 C 252.400 409.703, 251.226 388.957, 252.833 376.516 C 253.400 372.124, 253.742 368.408, 253.592 368.259 C 253.442 368.109, 252.145 371.927, 250.710 376.743 M 553.241 371.250 C 550.229 374.465, 549 378.333, 549 384.597 C 549 394.054, 552.972 400, 559.288 400 C 562.766 400, 566.273 398.251, 565.454 396.925 C 565.122 396.389, 565.410 396.074, 566.094 396.225 C 568.268 396.706, 569.970 391.716, 569.985 384.815 C 570.010 373.600, 567.011 369, 559.674 369 C 556.480 369, 554.798 369.588, 553.241 371.250 M 581.250 370.887 C 576.838 372.191, 576 372.815, 576 374.799 C 576 376.901, 576.328 377.087, 579 376.500 L 582 375.841 582 385.421 L 582 395 579.214 395 C 577.095 395, 576.429 395.479, 576.429 397 C 576.429 398.835, 577.095 399, 584.500 399 C 591.905 399, 592.571 398.835, 592.571 397 C 592.571 395.484, 591.905 395, 589.815 395 L 587.058 395 586.779 382.168 L 586.500 369.336 581.250 370.887 M 604.882 369.750 C 604.816 370.163, 604.816 370.837, 604.882 371.250 C 604.947 371.663, 604.452 371.887, 603.783 371.750 C 601.616 371.305, 599.003 378.153, 599.002 384.282 C 598.999 394.227, 602.887 400, 609.588 400 C 616.711 400, 620.472 393.367, 619.827 381.942 C 619.491 375.994, 619.047 374.658, 616.532 372.034 C 614.175 369.574, 612.810 369, 609.313 369 C 606.941 369, 604.947 369.337, 604.882 369.750 M 608 371.213 C 608 372.256, 609.159 372.185, 610.987 371.029 C 612.156 370.290, 611.996 370.125, 610.237 370.257 C 609.007 370.350, 608 370.780, 608 371.213 M 532.750 372.707 C 527.394 374.493, 526.024 377.345, 531 376.350 L 534 375.750 534 385.375 C 534 394.975, 533.994 395, 531.500 395 C 529.667 395, 529 395.533, 529 397 C 529 398.833, 529.667 399, 537 399 C 544.333 399, 545 398.833, 545 397 C 545 395.533, 544.333 395, 542.500 395 L 540 395 540 383 C 540 369.665, 540.356 370.171, 532.750 372.707 M 534 373.383 C 534 373.594, 534.901 374.002, 536.001 374.290 C 537.102 374.578, 537.751 374.405, 537.442 373.907 C 536.904 373.036, 534 372.594, 534 373.383 M 557.063 374.938 C 555.014 376.986, 554.432 380.597, 554.958 388 C 555.308 392.934, 556.674 395, 559.586 395 C 564.461 395, 566.726 383.903, 563.248 377.060 C 561.073 372.779, 559.694 372.306, 557.063 374.938 M 606.336 375.611 C 605.188 377.363, 604.628 380.240, 604.633 384.361 C 604.643 391.726, 606.141 395, 609.500 395 C 612.826 395, 614.335 391.769, 614.425 384.456 C 614.545 374.762, 610.086 369.887, 606.336 375.611 M 583.079 378.583 C 583.127 379.748, 583.364 379.985, 583.683 379.188 C 583.972 378.466, 583.936 377.603, 583.604 377.271 C 583.272 376.939, 583.036 377.529, 583.079 378.583 M 516.913 382.282 C 516.041 382.952, 515.008 385.503, 514.619 387.950 C 513.802 393.093, 512.520 395, 509.878 395 C 508.845 395, 508 395.413, 508 395.918 C 508 396.423, 507.727 397.548, 507.393 398.418 C 506.926 399.635, 507.451 400, 509.671 400 C 515.793 400, 520 394.318, 520 386.050 C 520 380.789, 519.559 380.251, 516.913 382.282 M 516.195 386.500 C 516.215 388.150, 516.439 388.704, 516.693 387.731 C 516.947 386.758, 516.930 385.408, 516.656 384.731 C 516.382 384.054, 516.175 384.850, 516.195 386.500 M 536.079 385.583 C 536.127 386.748, 536.364 386.985, 536.683 386.188 C 536.972 385.466, 536.936 384.603, 536.604 384.271 C 536.272 383.939, 536.036 384.529, 536.079 385.583 M 518.079 386.583 C 518.127 387.748, 518.364 387.985, 518.683 387.188 C 518.972 386.466, 518.936 385.603, 518.604 385.271 C 518.272 384.939, 518.036 385.529, 518.079 386.583 M 530 397.250 C 530 397.663, 533.150 398, 537 398 C 540.850 398, 544 397.663, 544 397.250 C 544 396.837, 540.850 396.500, 537 396.500 C 533.150 396.500, 530 396.837, 530 397.250 M 578 397.066 C 578 397.580, 579.425 398, 581.167 398 C 584.852 398, 584.640 397.336, 580.727 396.627 C 579.227 396.355, 578 396.553, 578 397.066 M 587 397 C 584.631 397.759, 584.671 397.806, 587.750 397.900 C 589.538 397.955, 591 397.550, 591 397 C 591 395.870, 590.529 395.870, 587 397 M 529.669 417.045 C 523.190 422.142, 523.478 439.719, 530.117 444.369 C 534.872 447.700, 541.930 445.776, 544.452 440.460 C 546.463 436.221, 546.495 424.857, 544.506 421.011 C 541.386 414.978, 534.603 413.165, 529.669 417.045 M 579.127 417.096 C 575.942 420.063, 574.805 423.589, 574.776 430.585 C 574.733 440.712, 578.554 446, 585.912 446 C 593.684 446, 598.193 434.436, 594.960 422.795 C 592.961 415.597, 584.143 412.423, 579.127 417.096 M 604.814 416.932 C 598.529 421.875, 598.437 439.052, 604.669 443.955 C 607.478 446.164, 612.919 446.649, 616.055 444.970 C 623.260 441.115, 623.260 419.885, 616.055 416.030 C 612.992 414.390, 607.483 414.832, 604.814 416.932 M 632.250 416.789 C 627.825 418.026, 627 418.625, 627 420.603 C 627 422.698, 627.335 422.883, 630.126 422.325 L 633.252 421.700 632.814 428.585 L 632.375 435.470 635.248 429.296 C 637.234 425.028, 638.025 421.917, 637.810 419.222 L 637.500 415.323 632.250 416.789 M 507.078 417.389 C 504.682 418.255, 503.607 419.294, 503.492 420.856 C 503.348 422.808, 503.683 423.009, 506.164 422.464 L 509 421.841 509 431.421 C 509 440.972, 508.993 441, 506.500 441 C 504.574 441, 504 441.517, 503.999 443.250 C 503.999 445.383, 504.387 445.500, 511.497 445.500 C 518.606 445.500, 518.995 445.383, 518.998 443.250 C 518.999 441.516, 518.427 441, 516.500 441 L 514 441 514 428.500 C 514 414.605, 514.144 414.835, 507.078 417.389 M 556 417.410 C 553.620 418.266, 552.394 419.392, 552.168 420.932 C 551.867 422.980, 552.128 423.131, 554.918 422.518 L 558 421.841 558 431.421 C 558 440.972, 557.993 441, 555.500 441 C 553.575 441, 552.999 441.517, 552.998 443.250 C 552.995 445.423, 553.268 445.489, 560.998 445.174 C 568.115 444.884, 569 444.635, 569 442.924 C 569 441.538, 568.300 441, 566.500 441 L 564 441 564 428.500 C 564 416.181, 563.967 416.001, 561.750 416.076 C 560.513 416.118, 557.925 416.718, 556 417.410 M 509.500 418.091 C 507.608 418.990, 507.619 419.019, 509.695 418.629 C 511.317 418.324, 511.999 418.775, 512.308 420.358 C 512.642 422.064, 512.755 421.940, 512.864 419.750 C 513.010 416.805, 512.615 416.611, 509.500 418.091 M 635.500 418 C 635.840 418.550, 636.316 419, 636.559 419 C 636.802 419, 637 418.550, 637 418 C 637 417.450, 636.523 417, 635.941 417 C 635.359 417, 635.160 417.450, 635.500 418 M 630.469 419.050 C 629.551 420.536, 630.281 421.062, 631.886 420.071 C 632.745 419.539, 632.848 419.024, 632.176 418.609 C 631.605 418.256, 630.837 418.455, 630.469 419.050 M 505 420 C 505 420.550, 505.450 421, 506 421 C 506.550 421, 507 420.550, 507 420 C 507 419.450, 506.550 419, 506 419 C 505.450 419, 505 419.450, 505 420 M 532.161 422.547 C 530.582 426.011, 530.679 437.178, 532.306 439.404 C 533.109 440.502, 534.554 441.057, 536.055 440.845 C 540.540 440.212, 542.381 428.317, 538.978 421.960 C 537.455 419.114, 533.572 419.448, 532.161 422.547 M 582.008 421.490 C 580.166 423.710, 579.631 434.991, 581.225 438 C 582.996 441.341, 586.373 441.734, 588.403 438.834 C 590.215 436.248, 590.581 426.659, 589.025 422.565 C 587.911 419.635, 584.040 419.042, 582.008 421.490 M 607.597 422.166 C 605.686 424.893, 605.438 434.673, 607.183 438.502 C 608.721 441.878, 612.900 441.600, 614.712 438 C 616.333 434.779, 616.332 426.218, 614.710 423 C 613.027 419.661, 609.630 419.262, 607.597 422.166 M 512.195 425.500 C 512.215 427.150, 512.439 427.704, 512.693 426.731 C 512.947 425.758, 512.930 424.408, 512.656 423.731 C 512.382 423.054, 512.175 423.850, 512.195 425.500 M 634 425.441 C 634 428.505, 634.570 428.753, 635.289 426.001 C 635.577 424.902, 635.404 423.750, 634.906 423.442 C 634.408 423.134, 634 424.034, 634 425.441 M 512.232 435 C 512.232 436.925, 512.438 437.712, 512.689 436.750 C 512.941 435.788, 512.941 434.212, 512.689 433.250 C 512.438 432.288, 512.232 433.075, 512.232 435 M 489.480 442.980 C 489.708 446.068, 491 446.652, 491 443.667 C 491 442.200, 490.625 441, 490.167 441 C 489.709 441, 489.400 441.891, 489.480 442.980 M 627 442.500 C 627 443.325, 627.177 444, 627.393 444 C 627.609 444, 628.045 443.325, 628.362 442.500 C 628.678 441.675, 628.501 441, 627.969 441 C 627.436 441, 627 441.675, 627 442.500 M 557.269 443.693 C 558.242 443.947, 559.592 443.930, 560.269 443.656 C 560.946 443.382, 560.150 443.175, 558.500 443.195 C 556.850 443.215, 556.296 443.439, 557.269 443.693 M 562.813 443.683 C 563.534 443.972, 564.397 443.936, 564.729 443.604 C 565.061 443.272, 564.471 443.036, 563.417 443.079 C 562.252 443.127, 562.015 443.364, 562.813 443.683 M 504.180 461.211 C 495.727 463.458, 494.214 484.834, 502.117 490.369 C 507.188 493.921, 514.025 491.577, 516.606 485.401 C 519.318 478.909, 517.755 464.821, 514.069 462.543 C 511.487 460.947, 507.296 460.382, 504.180 461.211 M 478.755 462.846 C 476.019 464.055, 475.009 465.111, 475.005 466.769 C 475.001 468.691, 475.383 468.942, 477.500 468.411 L 480 467.783 480 477.392 C 480 486.974, 479.993 487, 477.500 487 C 475.667 487, 475 487.533, 475 489 C 475 490.833, 475.667 491, 483 491 C 490.333 491, 491 490.833, 491 489 C 491 487.533, 490.333 487, 488.500 487 L 486 487 486 474 C 486 459.433, 486.108 459.599, 478.755 462.846 M 529.237 462.993 C 523.824 468.036, 523.630 484.640, 528.928 489.435 C 529.982 490.389, 532.616 491.407, 534.781 491.697 C 538.137 492.148, 539.207 491.787, 542.052 489.245 C 545.073 486.545, 545.428 485.639, 545.809 479.653 C 546.359 471.018, 545.502 466.834, 542.525 463.622 C 539.407 460.257, 532.524 459.932, 529.237 462.993 M 557.750 462.771 C 553.919 464.046, 553 464.796, 553 466.651 C 553 468.672, 553.362 468.878, 556 468.350 L 559 467.750 559 477.375 C 559 486.975, 558.994 487, 556.500 487 C 554.667 487, 554 487.533, 554 489 C 554 490.833, 554.667 491, 562 491 C 569.333 491, 570 490.833, 570 489 C 570 487.533, 569.333 487, 567.500 487 L 565 487 565 474 C 565 459.579, 565.415 460.222, 557.750 462.771 M 580.250 462.829 C 576.982 464.067, 576 464.959, 576 466.694 C 576 468.667, 576.376 468.875, 579 468.350 L 582 467.750 582 477.375 C 582 486.152, 581.833 487, 580.107 487 C 579.066 487, 577.955 487.675, 577.638 488.500 C 576.859 490.531, 577.475 490.410, 582.865 487.477 L 587.500 484.955 587.321 473.227 C 587.122 460.134, 587.172 460.207, 580.250 462.829 M 603.750 462.080 C 601.477 463.404, 599.431 467.536, 598.699 472.278 L 598.117 476.055 601.007 473.778 C 602.597 472.525, 604.182 470.696, 604.528 469.712 C 604.875 468.729, 606.885 466.835, 608.995 465.503 C 611.105 464.171, 613.121 462.613, 613.475 462.041 C 614.320 460.673, 606.109 460.706, 603.750 462.080 M 608.813 462.683 C 609.534 462.972, 610.397 462.936, 610.729 462.604 C 611.061 462.272, 610.471 462.036, 609.417 462.079 C 608.252 462.127, 608.015 462.364, 608.813 462.683 M 479 464.940 C 479 465.662, 478.349 465.964, 477.500 465.638 C 476.675 465.322, 476 465.499, 476 466.031 C 476 466.564, 476.648 467, 477.441 467 C 479.071 467, 480.511 465.178, 479.600 464.267 C 479.270 463.937, 479 464.240, 479 464.940 M 505 467 C 502.972 469.028, 502.432 472.272, 502.920 479.493 C 503.307 485.229, 504.613 487.180, 507.817 486.810 C 509.951 486.563, 510.773 485.681, 511.834 482.500 C 513.470 477.595, 512.710 469.442, 510.376 466.863 C 508.244 464.507, 507.474 464.526, 505 467 M 532.557 467.223 C 530.746 469.807, 530.390 481.992, 532.035 485.066 C 532.638 486.191, 534.122 487, 535.586 487 C 539.176 487, 541.418 481.341, 540.676 474.154 C 539.840 466.052, 535.795 462.599, 532.557 467.223 M 555 466.059 C 555 466.641, 555.450 466.840, 556 466.500 C 556.550 466.160, 557 465.684, 557 465.441 C 557 465.198, 556.550 465, 556 465 C 555.450 465, 555 465.477, 555 466.059 M 477 489 C 477 489.550, 477.927 490, 479.059 490 C 480.191 490, 480.840 489.550, 480.500 489 C 480.160 488.450, 479.234 488, 478.441 488 C 477.648 488, 477 488.450, 477 489 M 438.494 566.594 C 451.591 579.042, 478.085 595.128, 503.500 606.064 C 518.268 612.419, 549.426 622.974, 553.500 623.002 C 556.664 623.024, 580 615.953, 580 614.973 C 580 614.658, 576.228 613.855, 571.618 613.189 C 552.429 610.414, 512.799 598.920, 486.500 588.502 C 471.409 582.523, 451.060 572.395, 440 565.357 L 431.500 559.948 438.494 566.594 M 514 769.500 L 514 839 525.983 839 L 537.965 839 538.233 814.497 L 538.500 789.995 549.609 805.747 C 555.719 814.411, 563.369 825.418, 566.609 830.206 L 572.500 838.912 586.844 838.956 L 601.188 839 597.411 833.750 C 574.220 801.516, 562.080 783.672, 562.665 782.681 C 563.391 781.451, 579.721 761.163, 590.782 747.750 L 597.173 740 583.705 740 L 570.237 740 554.368 759.978 L 538.500 779.956 538.239 739.978 L 537.977 700 525.989 700 L 514 700 514 769.500 M 128 772.500 L 128 839 140.500 839 L 153 839 153 810.500 L 153 782 181 782 L 209 782 209 810.500 L 209 839 221.500 839 L 234 839 234 772.500 L 234 706 221.500 706 L 209 706 209 732 L 209 758 181 758 L 153 758 153 732 L 153 706 140.500 706 L 128 706 128 772.500 M 615 772.500 L 615 839 657 839 L 699 839 699 827.500 L 699 816 669.087 816 L 639.174 816 639.445 812.750 C 639.593 810.962, 639.779 803.538, 639.858 796.250 L 640 783 664.934 783 L 689.867 783 690.184 772.998 L 690.500 762.996 665 762.997 L 639.500 762.999 639.500 745.999 L 639.500 729 667.750 729 L 696 729 696 717.500 L 696 706 655.500 706 L 615 706 615 772.500 M 285.500 737.419 C 284.950 737.630, 282.025 738.553, 279 739.471 C 275.975 740.388, 271.089 742.570, 268.143 744.320 L 262.786 747.500 263.471 756.995 C 263.848 762.217, 264.317 766.650, 264.513 766.846 C 264.708 767.042, 266.447 765.998, 268.375 764.527 C 273.182 760.861, 280.605 758.198, 288.164 757.427 C 303.314 755.883, 312 763.177, 312 777.443 L 312 781 299.049 781 C 291.926 781, 283.714 781.502, 280.799 782.115 C 269.162 784.562, 259.625 791.122, 255.477 799.533 C 254.027 802.473, 253.522 805.571, 253.525 811.500 C 253.533 824.517, 258.824 833.417, 269.382 838.172 C 273.563 840.056, 276.243 840.480, 284.021 840.489 C 292.773 840.499, 294.081 840.235, 300.209 837.218 C 303.876 835.412, 308 832.600, 309.374 830.968 C 310.747 829.335, 312.012 827.999, 312.185 827.999 C 312.358 827.998, 312.346 830.473, 312.157 833.499 L 311.815 839 323.473 839 L 335.131 839 334.795 801.750 C 334.465 765.267, 334.409 764.378, 332.083 758.551 C 328.908 750.600, 322.563 743.978, 314.734 740.447 C 309.331 738.009, 307.034 737.594, 297.500 737.335 C 291.450 737.170, 286.050 737.208, 285.500 737.419 M 839.856 739.260 C 818.498 746.720, 806.691 766.995, 808.273 793.498 C 809.938 821.395, 826.726 839.498, 852.867 841.581 C 866.521 842.669, 883.429 837.400, 890.645 829.809 L 893.789 826.500 890.640 818.422 L 887.491 810.345 882.996 813.668 C 870.264 823.081, 849.917 823.328, 839.783 814.194 C 835.324 810.173, 831.025 802.117, 831.010 797.750 L 831 795 863 795 L 895 795 894.985 785.250 C 894.951 762.817, 886.811 747.416, 871.175 740.202 C 862.935 736.401, 849.225 735.988, 839.856 739.260 M 345.021 740.750 C 345.033 741.163, 351.707 763.325, 359.852 790 L 374.663 838.500 387.725 838.778 L 400.788 839.057 402.841 832.278 C 403.970 828.550, 408.296 813.834, 412.455 799.576 C 416.613 785.317, 420.150 773.516, 420.315 773.352 C 420.480 773.187, 421.623 776.528, 422.855 780.776 C 424.088 785.024, 428.524 799.862, 432.714 813.750 L 440.333 839 453.132 839 L 465.931 839 469.432 827.750 C 471.358 821.563, 478.281 799.288, 484.816 778.250 L 496.700 740 484.538 740 L 472.377 740 465.731 763.250 C 462.075 776.038, 457.865 791.225, 456.375 797 C 454.884 802.775, 453.359 807.858, 452.986 808.297 C 452.612 808.735, 449.758 800.185, 446.643 789.297 C 443.527 778.408, 439.017 762.975, 436.620 755 L 432.262 740.500 420.808 740.220 L 409.354 739.940 408.154 743.720 C 404.498 755.240, 390.944 800.339, 389.941 804.321 C 388.873 808.560, 386.952 810.826, 387.033 807.750 C 387.051 807.063, 383.115 791.538, 378.287 773.250 L 369.507 740 357.254 740 C 350.514 740, 345.009 740.337, 345.021 740.750 M 706.946 745.250 C 707.958 748.138, 715.401 767.825, 723.487 789 C 731.573 810.175, 739.344 830.558, 740.756 834.296 L 743.324 841.092 740.494 847.013 C 735.654 857.139, 730.058 861, 720.220 861 L 715.928 861 716.214 870.750 L 716.500 880.500 726.500 880.449 C 734.875 880.406, 737.281 880.018, 741.309 878.061 C 748.747 874.447, 754.486 867.984, 759.442 857.640 C 763.180 849.838, 804 742.660, 804 740.647 C 804 740.258, 798.303 740.066, 791.339 740.220 L 778.679 740.500 775.793 749 C 774.206 753.675, 769.364 768.750, 765.032 782.500 C 760.701 796.250, 756.748 808.583, 756.249 809.907 C 755.492 811.910, 753.275 806.245, 743.040 776.157 L 730.739 740 717.924 740 L 705.108 740 706.946 745.250 M 844.007 758.593 C 842.086 759.426, 839.439 761.096, 838.125 762.304 C 835.098 765.085, 831.023 773.647, 831.010 777.250 L 831 780 852.636 780 L 874.272 780 873.655 775.497 C 872.959 770.425, 870.152 764.349, 867.320 761.788 C 862.175 757.135, 850.924 755.593, 844.007 758.593 M 299.500 796.014 C 285.912 796.596, 281.026 798.270, 277.886 803.420 C 273.893 809.967, 276.724 818.764, 283.548 821.016 C 290.843 823.423, 302.081 819.741, 308.797 812.743 C 311.960 809.447, 312.082 809.028, 311.797 802.404 L 311.500 795.500 299.500 796.014" stroke="none" fill="#838383" fill-rule="evenodd"/>
</svg>