<?xml version='1.0' encoding='UTF-8'?>
<svg xmlns="http://www.w3.org/2000/svg" width="24" height="24" viewBox="0 0 500 500" version="1.1">
  <path d="M 204 8.623 C 174.787 13.809, 158.655 18.665, 140.614 27.704 C 99.930 48.089, 66.705 82.233, 45.451 125.500 C 37.277 142.142, 32.715 153.576, 28.053 169.114 C 24.122 182.216, 19.749 205.579, 20.547 209.215 C 22.033 215.978, 31.487 218.307, 36.926 213.250 C 41.129 209.342, 56.762 187.500, 59.847 181.227 C 61.823 177.208, 62.803 176.138, 63.969 176.726 C 64.811 177.150, 68.282 177.478, 71.682 177.454 C 75.732 177.426, 77.641 177.772, 77.218 178.456 C 76.864 179.030, 74.806 182.161, 72.646 185.413 C 64.570 197.572, 57.742 214.331, 54.416 230.156 C 51.646 243.338, 52.125 273.778, 55.343 289 C 59.775 309.969, 64.207 318, 71.346 318 C 73.621 318, 75.887 317.124, 77.819 315.499 C 80.536 313.212, 80.849 312.288, 81.453 304.749 C 82.962 285.922, 87.506 269.355, 95.016 255.300 C 99.254 247.369, 106.888 236.554, 107.685 237.352 C 107.964 237.631, 107.503 240.928, 106.660 244.680 C 102.320 264.001, 102.512 289.027, 107.137 306.854 C 110.675 320.490, 118.478 336.518, 125.636 344.850 C 128.417 348.088, 129.302 348.500, 133.472 348.500 C 137.431 348.500, 138.571 348.037, 140.695 345.568 C 142.950 342.947, 143.154 342.045, 142.616 337.068 C 141.019 322.286, 140.782 309.648, 141.964 302.271 C 146.029 276.901, 158.454 255.123, 179.165 237.070 C 187.880 229.474, 208.200 214.993, 212.374 213.404 C 213.480 212.983, 211.942 215.519, 208.620 219.596 C 202.309 227.339, 192.922 245.394, 190.474 254.500 C 186.953 267.593, 187.718 298.329, 191.734 305.127 C 194.429 309.690, 199.753 311.548, 204.475 309.575 C 208.750 307.789, 209.743 305.860, 211.017 296.878 C 214.918 269.377, 229.061 246.068, 252.306 228.833 C 261.280 222.179, 275.657 214.884, 284.614 212.439 C 292.783 210.208, 311.710 209.468, 322.264 210.966 C 334.876 212.757, 349.469 220, 340.463 220 C 338.453 220, 335.579 220.726, 334.076 221.614 C 331.561 223.100, 331.094 223.100, 328.221 221.614 C 324.364 219.620, 313.499 219.518, 310.021 221.443 C 307.914 222.609, 307.135 222.604, 304.821 221.407 C 301.086 219.476, 293.428 219.634, 289.904 221.716 C 287.160 223.336, 286.840 223.336, 284.096 221.716 C 282.084 220.527, 279.003 220, 274.069 220 C 266.968 220, 266.934 220.013, 262.474 224.474 C 260.013 226.934, 258 229.634, 258 230.474 C 258 231.389, 257.099 232.001, 255.750 232.004 C 252.366 232.009, 247.839 235.178, 244.661 239.766 C 242.047 243.540, 241.845 244.484, 242.110 251.682 C 242.383 259.079, 242.229 259.733, 239.255 263.823 C 235.027 269.638, 233.542 277.062, 234.883 285.679 C 235.452 289.330, 236.386 292.786, 236.958 293.358 C 239.100 295.500, 237.985 296.551, 233.978 296.169 C 220.775 294.910, 213 303.187, 213 318.500 C 213 333.613, 221.363 342.439, 233.869 340.524 C 239.203 339.707, 240.758 339.711, 251.059 340.569 C 255.217 340.916, 260.193 340.765, 262.117 340.233 C 264.432 339.594, 267.364 339.626, 270.789 340.328 C 274.674 341.123, 277.201 341.070, 280.929 340.115 C 284.363 339.235, 286.452 339.153, 287.698 339.851 C 289.329 340.764, 289.243 340.957, 286.789 341.890 C 279.798 344.548, 265.956 346.354, 253 346.299 C 241.794 346.251, 237.801 345.798, 229.500 343.631 C 206.300 337.574, 190.162 325.518, 182.316 308.380 C 179.631 302.513, 177.091 290.298, 177.035 282.973 C 176.992 277.345, 174.986 274.366, 170.385 273.096 C 160.189 270.281, 155.437 279.385, 155.562 301.500 C 155.636 314.638, 158.044 324.471, 164.114 336.414 C 173.513 354.910, 187.390 367.690, 209.175 377.914 C 226.045 385.830, 234.561 387.449, 259.500 387.477 C 277.919 387.497, 281.791 387.212, 291 385.159 C 307.837 381.404, 324.586 374.313, 339.500 364.625 L 346.500 360.078 354.821 368.289 L 363.142 376.500 362.564 381.044 C 361.612 388.527, 364.125 394.827, 371.188 402.664 C 390.416 423.998, 438.674 473.224, 443.227 476.148 C 448.034 479.234, 449.188 479.528, 457.801 479.849 C 466.596 480.177, 467.531 480.013, 473.459 477.095 C 478.094 474.813, 481.519 472.028, 486.400 466.575 C 495.071 456.887, 498.413 449.704, 498.343 440.903 C 498.258 430.170, 496.002 427.043, 467.014 397.484 C 452.981 383.175, 436.338 366.179, 430.030 359.714 C 417.300 346.669, 411.593 343, 404.032 343 C 399.626 343, 399.152 342.693, 391.298 334.750 L 383.140 326.500 390.139 317 C 407.637 293.247, 419.443 265.861, 425.703 234.500 C 427.145 227.277, 427.494 220.663, 427.469 201 C 427.441 178.256, 427.246 175.604, 424.755 164 C 411.579 102.635, 374.411 55.184, 317.049 26.498 C 306.123 21.035, 286.515 14.345, 272.647 11.350 C 261.494 8.941, 258.291 8.704, 233.500 8.453 C 218.650 8.303, 205.375 8.379, 204 8.623 M 215 17.573 C 213.625 17.811, 209.125 18.477, 205 19.053 C 163.909 24.786, 131.817 39.582, 101.858 66.607 C 74.849 90.972, 55.554 121.063, 41.527 160.699 C 36.379 175.246, 29.574 204, 31.280 204 C 32.517 204, 47.980 181.774, 51.456 175 C 76.181 126.809, 104.922 91.417, 136.500 70.275 C 158.597 55.481, 182.682 46.563, 208.998 43.431 C 263.581 36.936, 310.976 52.913, 348.531 90.469 C 370.133 112.072, 383.055 134.220, 390.450 162.317 C 394.324 177.034, 395.268 186.402, 394.777 205.240 C 394.406 219.435, 393.834 224.631, 391.557 234.500 C 384.981 263, 373.782 285.654, 354.865 308.719 C 348.774 316.146, 333.087 330.389, 325.243 335.614 C 312.144 344.340, 293.296 351.701, 276.500 354.651 C 265.559 356.573, 244.242 356.762, 234 355.028 C 224.045 353.342, 209.149 347.893, 200.500 342.773 C 184.335 333.203, 171.285 315.143, 168.872 299 C 167.320 288.622, 166.744 287.625, 165.979 294 C 163.420 315.317, 173.540 339.899, 190.885 354.500 C 203.733 365.315, 221.699 373.728, 238.029 376.575 C 249.426 378.562, 277.553 378.010, 288 375.594 C 299.281 372.985, 311.888 368.232, 322.675 362.523 C 333.200 356.953, 344.351 349.859, 345.497 348.005 C 346.921 345.700, 349.444 347.694, 362.353 361.327 L 375.920 375.654 373.872 379.794 C 370.819 385.964, 372.371 389.401, 383.423 400.953 C 388.447 406.204, 402.220 420.621, 414.029 432.992 C 440.205 460.413, 445.638 465.799, 449.500 468.159 C 453.155 470.393, 463.518 470.656, 468.282 468.635 C 472.459 466.864, 482.824 456.214, 485.680 450.759 C 488.559 445.260, 488.672 438.237, 485.967 432.936 C 484.780 430.608, 468.399 413.263, 446.577 391.225 L 409.220 353.500 402.360 353.437 L 395.500 353.373 388.603 346.437 C 384.809 342.621, 379.026 336.714, 375.751 333.309 L 369.796 327.118 378.785 315.178 C 396.605 291.506, 405.445 273.233, 412.423 245.651 C 423.325 202.559, 417.903 156.131, 397.422 117.197 C 390.969 104.929, 386.112 97.595, 376.433 85.500 C 355.662 59.545, 323.076 37.506, 289.500 26.703 C 269.907 20.400, 255.136 17.949, 234 17.495 C 224.925 17.300, 216.375 17.335, 215 17.573 M 212.646 52.989 C 181.246 56.956, 153.318 68.751, 129.431 88.132 C 122.497 93.757, 121.549 95.888, 127.828 91.733 C 142.079 82.302, 168.967 72.332, 188 69.423 C 203.246 67.092, 230.221 67.062, 246.716 69.357 C 289.673 75.335, 324.106 97.679, 339.054 129.275 C 340.882 133.141, 341.999 137.120, 341.999 139.775 C 342 143.526, 342.337 144.173, 344.750 145.059 C 352.168 147.782, 357.188 151.177, 364.619 158.500 C 370.817 164.607, 373.693 168.402, 376.773 174.537 C 381.945 184.838, 383.137 189.237, 384.079 201.500 C 384.762 210.385, 384.810 209.828, 384.509 196.499 C 384.142 180.278, 381.284 164.307, 376.449 151.461 C 357.876 102.117, 314.144 65.153, 262.288 54.968 C 250.134 52.581, 224.092 51.542, 212.646 52.989 M 202 78.004 C 183.048 79.182, 158.506 86.620, 139.185 97.042 C 115.944 109.578, 95.282 129.275, 78.912 154.500 C 71.662 165.671, 70.812 167.145, 71.323 167.656 C 71.588 167.922, 75.115 166.761, 79.160 165.077 C 88.905 161.020, 112.382 153.052, 112.943 153.611 C 113.187 153.854, 109.052 158.428, 103.754 163.776 C 92.101 175.541, 88.612 179.734, 81.655 190.340 C 62.309 219.832, 57.084 255.462, 66.674 292.500 C 68.098 298, 69.908 303.625, 70.695 305 C 71.483 306.375, 71.892 306.725, 71.605 305.777 C 70.717 302.845, 72.924 286.974, 75.606 277 C 81.415 255.406, 91.382 238.510, 108.053 222 C 117.745 212.402, 122.633 208.426, 133.250 201.505 C 137.520 198.721, 138.083 199.875, 134.667 204.406 C 123.985 218.570, 116.559 240.595, 113.975 265.774 C 112.311 281.988, 115.610 304.167, 121.866 318.824 C 124.538 325.086, 134.021 340.843, 132.504 336.500 C 131.049 332.337, 130.707 308.807, 131.975 300.159 C 137.040 265.631, 157.955 236.785, 196.440 211.251 C 204.164 206.126, 242.312 186, 244.302 186 C 244.524 186, 250.060 183.426, 256.603 180.279 L 268.500 174.559 260.500 173.971 C 250.395 173.229, 243.182 169.913, 234.797 162.157 C 227.253 155.178, 224.023 148.789, 224.010 140.815 C 224.004 137.688, 224.436 133.984, 224.968 132.583 C 225.743 130.546, 225.593 129.856, 224.218 129.135 C 222.457 128.210, 201.973 121.973, 194.123 119.971 C 190.809 119.126, 190.027 118.573, 190.902 117.698 C 192.575 116.025, 234.460 116.167, 243 117.874 C 252.474 119.768, 266.256 124.359, 279.414 130.005 C 296.902 137.509, 307.531 140.230, 319.197 140.191 C 332.961 140.145, 332.998 140.102, 327.906 130.171 C 318.080 111.007, 295.560 93.433, 270.194 85.135 C 251.738 79.097, 226.639 76.472, 202 78.004 M 244 135 C 241.613 137.387, 241.329 143.459, 243.375 148.355 C 245.318 153.006, 250.894 159.058, 254.702 160.649 C 264.893 164.907, 277.583 159.416, 282.605 148.576 C 284.772 143.900, 284.819 143.457, 283.226 142.825 C 280.160 141.609, 279.488 141.939, 277.495 145.640 C 273.426 153.194, 264.280 156.544, 256.780 153.227 C 249.909 150.187, 247.443 143.662, 250.449 136.468 L 251.898 133 248.949 133 C 247.327 133, 245.100 133.900, 244 135 M 260.669 138.569 C 258.641 142.820, 259.145 144, 262.986 144 C 264.894 144, 266.549 143.118, 267.927 141.365 C 270.575 137.999, 270.536 137.565, 267.453 136.161 C 263.512 134.365, 262.502 134.723, 260.669 138.569 M 292.465 151.750 C 291.304 154.802, 288.414 158.750, 284.378 162.794 C 280.459 166.721, 278.307 169.636, 278.655 170.544 C 278.963 171.345, 279.537 172, 279.931 172 C 282.015 172, 291.329 164.073, 297.243 157.266 L 303.987 149.506 300.743 148.329 C 295.224 146.326, 294.398 146.667, 292.465 151.750 M 321.297 152.089 C 315.114 153.252, 314.026 154.055, 304.343 164.605 C 294.244 175.608, 288.375 179.900, 275.139 185.961 C 252.473 196.341, 241.159 203.072, 228.516 213.699 C 215.747 224.432, 207.782 236.253, 201.700 253.500 C 198.645 262.163, 198.525 263.100, 198.514 278.500 C 198.506 288.331, 198.924 295.214, 199.598 296.352 C 200.502 297.880, 200.808 297.115, 201.345 291.977 C 203.260 273.649, 218.080 245.474, 233.136 231.535 C 259.305 207.307, 285.841 197.257, 316.369 200.013 C 333.635 201.572, 343.167 204.874, 351.454 212.169 C 357.769 217.727, 360.209 222.858, 360.793 231.807 L 361.270 239.113 364.515 234.550 C 369.264 227.869, 371.935 220.962, 373.246 211.966 C 377.114 185.426, 361.528 160.362, 337 153.679 C 329.026 151.506, 326.014 151.201, 321.297 152.089 M 382.202 219.959 C 380.453 227.517, 374.877 238.583, 369.963 244.251 C 366.766 247.937, 364.964 249.142, 361.922 249.629 C 358.332 250.203, 358 250.520, 357.996 253.378 C 357.994 255.095, 357.101 257.962, 356.012 259.749 C 354.031 262.997, 354.031 262.998, 356.118 267.002 C 357.341 269.348, 358.479 274.009, 358.866 278.253 L 359.526 285.500 363.890 278.108 C 372.652 263.267, 378.534 247.315, 382.089 228.753 C 384.264 217.396, 384.351 210.677, 382.202 219.959 M 268.275 232.703 C 265.825 236.442, 265.824 247.546, 268.273 251.290 C 269.742 253.535, 270.771 253.997, 274.273 253.985 C 279.377 253.966, 280.554 253.302, 281.937 249.665 C 284.111 243.947, 282.777 232.750, 279.687 230.786 C 279.034 230.370, 276.598 230.024, 274.273 230.015 C 270.774 230.003, 269.741 230.466, 268.275 232.703 M 293.250 231.989 C 290.166 233.869, 288.594 236.789, 291.250 235.703 C 296.440 233.581, 296.104 233.068, 295.791 242.627 C 295.518 250.965, 295.364 251.519, 293.250 251.820 C 288.425 252.505, 291.339 254, 297.500 254 C 301.167 254, 304 253.564, 304 253 C 304 252.450, 303.100 252, 302 252 C 300.121 252, 300 251.333, 300 241 C 300 228.667, 299.592 228.122, 293.250 231.989 M 313.123 232.570 C 309.190 237.570, 309.476 248.333, 313.652 252.509 C 315.196 254.053, 321.668 254.525, 323.600 253.235 C 328.517 249.952, 328.517 234.048, 323.600 230.765 C 322.995 230.361, 320.845 230.024, 318.823 230.015 C 316.053 230.004, 314.646 230.635, 313.123 232.570 M 336.752 231.841 C 333.681 233.694, 332.879 236.650, 335.750 235.533 C 338.676 234.394, 339.505 234.443, 339.400 235.750 C 339.345 236.438, 339.233 240.375, 339.150 244.500 C 339.014 251.283, 338.809 252, 337 252 C 335.900 252, 335 252.450, 335 253 C 335 253.564, 337.833 254, 341.500 254 C 347.661 254, 350.575 252.505, 345.750 251.820 C 343.597 251.514, 343.488 251.038, 343.216 240.750 C 342.904 228.908, 342.510 228.366, 336.752 231.841 M 271.557 234.223 C 268.209 239.002, 270.350 252, 274.485 252 C 277.629 252, 279 248.963, 279 242 C 279 237.100, 278.552 234.694, 277.429 233.571 C 275.256 231.399, 273.390 231.606, 271.557 234.223 M 315.387 234.532 C 314.116 236.472, 313.855 238.469, 314.273 243.069 C 314.859 249.532, 316.183 252, 319.066 252 C 322.063 252, 324 248.074, 324 242 C 324 233.019, 319.139 228.805, 315.387 234.532 M 253.655 244.829 C 252.745 245.835, 252 248.310, 252 250.329 C 252 253.333, 252.363 254, 254 254 C 255.758 254, 256 253.333, 256 248.500 C 256 245.475, 255.845 243, 255.655 243 C 255.465 243, 254.565 243.823, 253.655 244.829 M 248.400 268.739 C 246.005 270.395, 244.647 274.793, 244.697 280.734 C 244.768 289.248, 246.624 292.005, 252.273 291.985 C 254.598 291.976, 256.995 291.639, 257.600 291.235 C 259.908 289.694, 261.333 285.295, 261.333 279.716 C 261.333 272.080, 258.934 268.609, 253.400 268.239 C 251.255 268.096, 249.005 268.321, 248.400 268.739 M 270.750 269.758 C 269.238 270.696, 268 272.034, 268 272.732 C 268 274.242, 269.625 274.416, 270.500 273 C 272.194 270.260, 273 272.840, 273 281 C 273 289.989, 272.997 290, 270.441 290 C 268.990 290, 268.149 290.433, 268.500 291 C 268.840 291.550, 271.765 292, 275 292 C 278.235 292, 281.160 291.550, 281.500 291 C 281.851 290.433, 281.010 290, 279.559 290 L 277 290 277 279 C 277 266.834, 276.547 266.164, 270.750 269.758 M 292.400 268.739 C 290.055 270.360, 289 274.145, 289 280.934 C 289 286.667, 289.377 288.377, 291 290 C 293.021 292.021, 299.324 292.755, 301.600 291.235 C 303.898 289.700, 305.200 285.547, 305.200 279.751 C 305.200 271.919, 302.958 268.611, 297.400 268.239 C 295.255 268.096, 293.005 268.321, 292.400 268.739 M 314.750 269.758 C 311.532 271.753, 310.795 274.715, 313.934 273.035 C 314.998 272.466, 316.123 272, 316.434 272 C 316.745 272, 317 276.050, 317 281 C 317 289.933, 316.981 290, 314.500 290 C 313.125 290, 312 290.450, 312 291 C 312 291.564, 314.833 292, 318.500 292 C 322.167 292, 325 291.564, 325 291 C 325 290.450, 324.100 290, 323 290 C 321.121 290, 321 289.333, 321 279 C 321 266.834, 320.547 266.164, 314.750 269.758 M 334.509 269.990 C 331.192 273.655, 331.259 287.116, 334.611 290.468 C 336.471 292.328, 342.959 292.482, 345.365 290.722 C 349.367 287.796, 349.706 273.706, 345.866 269.866 C 343.294 267.294, 336.886 267.364, 334.509 269.990 M 250.482 271.390 C 248.908 272.541, 248.593 274.011, 248.647 279.960 C 248.726 288.519, 250.322 291.086, 254.409 289.223 C 259.922 286.711, 258.697 270, 253 270 C 252.660 270, 251.527 270.625, 250.482 271.390 M 293.557 272.223 C 291.275 275.480, 291.473 285.128, 293.883 288.103 C 295.531 290.139, 296.084 290.283, 298.329 289.260 C 300.115 288.446, 301.094 287.015, 301.559 284.539 C 303.470 274.348, 297.983 265.903, 293.557 272.223 M 337.571 271.571 C 336.448 272.694, 336 275.100, 336 280 C 336 284.900, 336.448 287.306, 337.571 288.429 C 341.449 292.306, 345 288.277, 345 280 C 345 271.723, 341.449 267.694, 337.571 271.571 M 330.836 308.670 C 331.046 312.977, 331.411 316.704, 331.647 316.954 C 331.882 317.204, 335.542 313.942, 339.780 309.704 L 347.484 302 341.867 302 C 338.778 302, 334.946 301.739, 333.352 301.420 L 330.453 300.841 330.836 308.670 M 227.229 306.669 C 224.819 307.639, 223 312.898, 223 318.895 C 223 323.686, 223.451 325.401, 225.250 327.445 C 230.764 333.711, 238.728 330.593, 239.721 321.779 C 240.836 311.892, 237.810 305.932, 231.750 306.079 C 229.963 306.122, 227.928 306.388, 227.229 306.669 M 249.250 308.115 C 245.134 310.751, 245.033 312.371, 249.040 311.491 L 252.080 310.823 251.790 319.662 C 251.513 328.102, 251.399 328.496, 249.250 328.421 C 248.012 328.377, 247 328.714, 247 329.171 C 247 329.627, 249.925 330, 253.500 330 C 257.075 330, 260 329.600, 260 329.111 C 260 328.622, 259.212 328.285, 258.250 328.361 C 256.694 328.485, 256.469 327.253, 256.217 317.250 C 255.901 304.655, 255.491 304.118, 249.250 308.115 M 268.933 309.250 C 267.267 311.908, 266.954 313.817, 267.216 319.733 C 267.599 328.358, 268.952 330.203, 275.012 330.362 C 278.261 330.447, 279.619 329.954, 281.068 328.164 C 283.490 325.173, 284.397 320.133, 283.540 314.421 C 282.647 308.466, 280.142 306, 274.985 306 C 271.540 306, 270.681 306.461, 268.933 309.250 M 293.250 308.115 C 289.665 310.411, 288.504 313.871, 291.934 312.035 C 295.751 309.992, 296.089 310.665, 295.789 319.707 C 295.512 328.052, 295.396 328.442, 293 329.058 C 291.319 329.491, 292.711 329.832, 297.252 330.101 C 301.870 330.374, 304.004 330.140, 304.002 329.361 C 304.001 328.735, 303.212 328.285, 302.250 328.361 C 300.694 328.485, 300.469 327.253, 300.217 317.250 C 299.901 304.655, 299.491 304.118, 293.250 308.115 M 315 307.786 C 310.423 310.862, 310.379 313.473, 314.945 311.030 C 316.907 309.980, 317 310.188, 317 315.620 C 317 321.247, 317.022 321.290, 319 319.500 C 320.565 318.083, 321 316.420, 321 311.845 C 321 305.344, 319.820 304.545, 315 307.786 M 229.204 309.570 C 227.316 310.892, 227 312.047, 227 317.622 C 227 325.313, 228.165 328, 231.500 328 C 234.941 328, 236.138 325.031, 235.795 317.348 C 235.556 311.991, 235.111 310.477, 233.454 309.380 C 231.711 308.228, 231.080 308.256, 229.204 309.570 M 273.178 308.869 C 270.217 310.746, 269.570 323.341, 272.259 326.750 C 272.801 327.438, 274.297 328, 275.582 328 C 277.433 328, 278.163 327.188, 279.088 324.100 C 280.472 319.481, 279.555 311.698, 277.369 309.512 C 275.645 307.788, 275.031 307.694, 273.178 308.869 M 119.923 366.923 C 117.748 369.098, 117 370.791, 117 373.538 C 117 376.788, 117.927 378.187, 124.750 385.228 C 143.101 404.166, 169.947 422.664, 194.345 433.181 C 222.532 445.330, 290.226 467, 299.994 467 C 307.641 467, 312.015 456.287, 306.584 450.857 C 303.589 447.862, 281.750 434.856, 269 428.474 C 256.044 421.990, 246.565 417.985, 226 410.311 C 185.744 395.289, 165.680 385.872, 137.620 368.829 C 127.999 362.985, 124.263 362.583, 119.923 366.923 M 136 382.106 C 160.307 405.068, 184.157 419.248, 221 432.647 C 245.713 441.634, 298.413 457.954, 296.338 455.977 C 294.444 454.173, 276.826 443.937, 267.500 439.222 C 251.655 431.211, 245.931 428.763, 220.500 419.121 C 178.102 403.046, 168.114 398.378, 135 379.158 L 129.500 375.966 136 382.106" fill="#838383" stroke="none" fill-rule="evenodd"/>
</svg>
