<svg xmlns="http://www.w3.org/2000/svg" width="1024" height="1024" viewBox="0 0 1024 1024" version="1.1">
	<path d="M 0 512.001 L 0 1024.002 512.250 1023.751 L 1024.500 1023.500 1024.751 511.750 L 1025.002 0 512.501 0 L 0 0 0 512.001 M 0.496 512.500 C 0.496 794.100, 0.610 909.151, 0.750 768.168 C 0.890 627.186, 0.890 396.786, 0.750 256.168 C 0.610 115.551, 0.496 230.900, 0.496 512.500 M 458.384 132.025 C 399.793 137.668, 352.176 159.568, 310.631 199.981 C 278.080 231.645, 256.197 263.733, 237.987 306.500 C 234.072 315.694, 225.189 341.513, 223.562 348.425 C 222.738 351.930, 221.340 352.898, 239.760 337.211 C 252.437 326.416, 253.215 325.532, 257.435 317.130 C 267.096 297.894, 284.273 271.279, 298.592 253.358 C 338.841 202.988, 381.822 173.198, 430.407 161.998 C 450.414 157.386, 481.201 155.709, 502.789 158.055 C 546.758 162.834, 587.893 182.280, 619.019 213 C 647.381 240.992, 665.718 274.111, 673.068 310.621 C 676.199 326.169, 676.876 354.541, 674.516 371.270 C 669.978 403.442, 658.395 433.636, 641.244 458 C 632.870 469.895, 612.340 490.501, 600.692 498.700 C 551.746 533.155, 490.320 537.969, 449.119 510.579 C 445.399 508.106, 438.787 502.347, 434.427 497.782 C 415.449 477.910, 405.979 456.372, 404.189 429.007 L 403.437 417.500 401.522 427 C 400.137 433.868, 399.610 440.656, 399.618 451.500 C 399.638 477.727, 404.653 493.493, 418.431 510.645 C 433.145 528.964, 445.691 537.191, 472 545.773 C 487.295 550.763, 492.022 551.432, 512 551.431 C 527.233 551.430, 532.513 551.029, 541.900 549.156 C 564.478 544.652, 591.856 533.700, 608.202 522.634 L 614.904 518.096 627.429 531.162 C 639.339 543.586, 639.882 544.331, 638.477 546.336 C 637.633 547.542, 637 550.679, 637 553.662 C 637 558.342, 637.427 559.373, 641.156 563.689 C 649.684 573.560, 722.602 647.255, 725.145 648.573 C 729.317 650.734, 735.197 651.293, 740.042 649.990 C 743.619 649.027, 746.542 646.786, 754.837 638.645 C 760.523 633.065, 765.810 627.285, 766.587 625.800 C 768.297 622.531, 768.363 613.540, 766.705 609.737 C 765.597 607.197, 709.042 548.130, 688.204 527.750 C 679.912 519.640, 678.959 519, 675.176 519 C 672.931 519, 669.984 519.506, 668.626 520.124 C 666.496 521.095, 665.840 520.912, 663.829 518.782 C 662.548 517.425, 657.032 511.768, 651.572 506.210 L 641.643 496.106 647.644 488.803 C 665.066 467.598, 675.665 449.620, 687.336 421.479 C 696.824 398.599, 702.667 356.871, 700.225 329.419 C 696.576 288.390, 681.420 248.442, 658.011 218.153 C 622.456 172.148, 569.246 141.742, 510 133.574 C 496.405 131.699, 469.994 130.907, 458.384 132.025 M 425.692 199.494 C 384.837 206.747, 347.850 227.285, 316.717 260.005 C 305.973 271.296, 295.721 284.760, 290.671 294.207 C 287.901 299.390, 287.886 299.507, 289.932 299.821 C 291.080 299.997, 297.872 299.210, 305.024 298.071 C 312.177 296.932, 318.480 296, 319.031 296 C 319.582 296, 316.807 299.712, 312.864 304.250 C 291.672 328.637, 281.898 352.225, 278.948 386.103 C 277.452 403.278, 279.034 417.625, 284.227 433.970 L 287.235 443.440 291.476 431.470 C 299.288 409.422, 306.214 395.536, 316.861 380.578 C 322.349 372.868, 345.539 348.206, 346.447 349.114 C 346.697 349.364, 345.331 354.503, 343.412 360.534 C 334.257 389.300, 331.558 404.508, 331.526 427.500 C 331.498 447.005, 332.404 453.669, 337.111 468.566 C 339.580 476.377, 348.676 496.077, 350.791 498.191 C 351.181 498.581, 351.530 492.059, 351.567 483.700 C 351.724 448.123, 363.066 419.181, 387.699 391.500 C 408.454 368.176, 433.677 350.465, 489.177 320.244 L 512.853 307.351 505.764 307.161 C 483.847 306.572, 464.783 294.430, 458.409 277 C 457.445 274.363, 456.736 269.292, 456.698 264.750 C 456.661 260.488, 456.377 257, 456.066 257 C 454.949 257, 424.369 249.914, 418.250 248.238 C 414.813 247.296, 412 246.242, 412 245.896 C 412 244.591, 430.191 242.795, 448.620 242.281 C 477.230 241.482, 492.286 243.685, 525.047 253.462 C 546.380 259.829, 562.750 262.786, 578.971 263.204 C 592.410 263.551, 592.682 263.309, 588.489 254.745 C 578.781 234.919, 550.114 214.797, 518.372 205.529 C 499.806 200.107, 483.231 197.778, 460.500 197.396 C 441.670 197.080, 438.073 197.296, 425.692 199.494 M 486 258.725 C 485.175 259.037, 482.536 260.689, 480.135 262.396 L 475.770 265.500 476.275 271.088 C 478.288 293.328, 506.544 303.361, 520.524 286.799 C 523.316 283.492, 526.937 276.507, 526.978 274.349 C 526.996 273.412, 520.844 269, 519.520 269 C 519.319 269, 518.662 270.495, 518.059 272.322 C 516.295 277.666, 510.949 282.139, 505.605 282.741 C 496.581 283.758, 492.501 278.186, 493.216 265.821 L 493.669 258 490.585 258.079 C 488.888 258.122, 486.825 258.413, 486 258.725 M 574.844 275.394 C 568.062 277.816, 562.548 281.762, 551 292.458 C 535.018 307.260, 526.143 314.052, 506.500 326.518 C 480.612 342.946, 470.407 351.380, 460.520 364.516 C 448.605 380.348, 442.606 395.198, 441.074 412.650 C 440.139 423.302, 440.652 439, 441.935 439 C 442.291 439, 443.383 435.962, 444.361 432.250 C 454.462 393.937, 483.725 357.868, 518.789 340.515 C 534.491 332.745, 538.901 331.782, 561.257 331.243 C 585.817 330.650, 596.107 332.167, 608.041 338.140 C 621.177 344.715, 628.166 354.723, 629.670 369.113 C 630.206 374.248, 630.483 374.846, 631.815 373.754 C 634.627 371.449, 640.829 356.597, 642.562 348.018 C 645.751 332.230, 643.246 314.146, 636.193 302.038 C 632.283 295.326, 620.386 283.958, 613.419 280.276 C 610.074 278.509, 604.692 276.373, 601.458 275.531 C 594.336 273.676, 579.862 273.601, 574.844 275.394 M 250.710 376.743 C 246.195 391.891, 245.540 396.719, 245.520 415 C 245.497 434.874, 246.671 442.134, 252.972 461.090 C 260.464 483.632, 274.792 508.415, 291.703 528.083 C 335.482 579.004, 413.728 617.775, 502.270 632.421 C 510.097 633.715, 519.425 635.030, 523 635.342 L 529.500 635.910 517.362 631.570 C 501.573 625.925, 452.647 606.471, 433.500 598.224 C 349.691 562.129, 300.241 519.868, 269.728 458.264 C 254.398 427.312, 249.444 402.859, 252.965 375.515 C 253.460 371.674, 253.742 368.408, 253.592 368.259 C 253.442 368.109, 252.145 371.927, 250.710 376.743 M 553.241 371.250 C 550.229 374.465, 549 378.333, 549 384.597 C 549 394.054, 552.972 400, 559.288 400 C 562.905 400, 566.262 398.232, 565.373 396.795 C 564.988 396.172, 565.144 395.971, 565.732 396.334 C 567.645 397.517, 569.224 394.082, 569.744 387.605 C 570.766 374.871, 567.603 369, 559.722 369 C 556.478 369, 554.804 369.581, 553.241 371.250 M 581.250 370.887 C 576.838 372.191, 576 372.815, 576 374.799 C 576 376.901, 576.328 377.087, 579 376.500 L 582 375.841 582 385.421 L 582 395 579.214 395 C 577.095 395, 576.429 395.479, 576.429 397 C 576.429 398.835, 577.095 399, 584.500 399 C 591.905 399, 592.571 398.835, 592.571 397 C 592.571 395.484, 591.905 395, 589.815 395 L 587.058 395 586.779 382.168 L 586.500 369.336 581.250 370.887 M 604.882 369.750 C 604.816 370.163, 604.816 370.837, 604.882 371.250 C 604.947 371.663, 604.452 371.887, 603.783 371.750 C 601.616 371.305, 599.003 378.153, 599.002 384.282 C 598.999 394.227, 602.887 400, 609.588 400 C 616.711 400, 620.472 393.367, 619.827 381.942 C 619.491 375.994, 619.047 374.658, 616.532 372.034 C 614.175 369.574, 612.810 369, 609.313 369 C 606.941 369, 604.947 369.337, 604.882 369.750 M 559.269 370.693 C 560.242 370.947, 561.592 370.930, 562.269 370.656 C 562.946 370.382, 562.150 370.175, 560.500 370.195 C 558.850 370.215, 558.296 370.439, 559.269 370.693 M 607.250 371.114 C 608.306 371.709, 609.634 371.744, 610.599 371.205 C 611.802 370.531, 611.370 370.288, 608.849 370.219 C 606.156 370.146, 605.843 370.322, 607.250 371.114 M 532.750 372.707 C 527.394 374.493, 526.024 377.345, 531 376.350 L 534 375.750 534 385.375 C 534 394.975, 533.994 395, 531.500 395 C 529.667 395, 529 395.533, 529 397 C 529 398.833, 529.667 399, 537 399 C 544.333 399, 545 398.833, 545 397 C 545 395.533, 544.333 395, 542.500 395 L 540 395 540 383 C 540 369.665, 540.356 370.171, 532.750 372.707 M 534 373.386 C 534 373.598, 534.632 374.989, 535.404 376.477 C 536.741 379.055, 536.838 379.085, 537.468 377.100 C 538.251 374.635, 537.442 373, 535.441 373 C 534.648 373, 534 373.174, 534 373.386 M 557.063 374.938 C 555.014 376.986, 554.432 380.597, 554.958 388 C 555.308 392.934, 556.674 395, 559.586 395 C 564.461 395, 566.726 383.903, 563.248 377.060 C 561.073 372.779, 559.694 372.306, 557.063 374.938 M 577.603 373.833 C 577.320 374.292, 577.743 374.667, 578.544 374.667 C 579.345 374.667, 580 374.292, 580 373.833 C 580 373.375, 579.577 373, 579.059 373 C 578.541 373, 577.886 373.375, 577.603 373.833 M 606.336 375.611 C 604.283 378.743, 604.008 389.326, 605.888 392.810 C 606.802 394.503, 607.851 395.037, 609.817 394.810 C 611.952 394.563, 612.772 393.683, 613.830 390.500 C 616.088 383.709, 613.438 373, 609.500 373 C 608.700 373, 607.276 374.175, 606.336 375.611 M 601.624 375.539 C 601.281 376.432, 601.029 377.689, 601.063 378.332 C 601.098 378.974, 601.558 378.422, 602.085 377.105 C 602.612 375.787, 602.864 374.531, 602.645 374.312 C 602.426 374.093, 601.966 374.645, 601.624 375.539 M 583.079 378.583 C 583.127 379.748, 583.364 379.985, 583.683 379.188 C 583.972 378.466, 583.936 377.603, 583.604 377.271 C 583.272 376.939, 583.036 377.529, 583.079 378.583 M 568.286 384.500 C 568.294 387.250, 568.488 388.256, 568.718 386.736 C 568.947 385.216, 568.941 382.966, 568.704 381.736 C 568.467 380.506, 568.279 381.750, 568.286 384.500 M 516.913 382.282 C 516.041 382.952, 515.008 385.503, 514.619 387.950 C 513.802 393.093, 512.520 395, 509.878 395 C 508.845 395, 508 395.413, 508 395.918 C 508 396.423, 507.727 397.548, 507.393 398.418 C 506.933 399.617, 507.432 400, 509.459 400 C 512.930 400, 516.244 398.204, 515.373 396.795 C 514.971 396.144, 515.147 395.973, 515.803 396.378 C 517.595 397.485, 520 391.566, 520 386.050 C 520 380.789, 519.559 380.251, 516.913 382.282 M 618.079 382.583 C 618.127 383.748, 618.364 383.985, 618.683 383.188 C 618.972 382.466, 618.936 381.603, 618.604 381.271 C 618.272 380.939, 618.036 381.529, 618.079 382.583 M 566.079 383.583 C 566.127 384.748, 566.364 384.985, 566.683 384.188 C 566.972 383.466, 566.936 382.603, 566.604 382.271 C 566.272 381.939, 566.036 382.529, 566.079 383.583 M 600.232 385 C 600.232 386.925, 600.438 387.712, 600.689 386.750 C 600.941 385.788, 600.941 384.212, 600.689 383.250 C 600.438 382.288, 600.232 383.075, 600.232 385 M 516.195 386.500 C 516.215 388.150, 516.439 388.704, 516.693 387.731 C 516.947 386.758, 516.930 385.408, 516.656 384.731 C 516.382 384.054, 516.175 384.850, 516.195 386.500 M 536 386.500 C 536 387.875, 536.388 389, 536.861 389 C 537.335 389, 537.508 387.875, 537.245 386.500 C 536.982 385.125, 536.594 384, 536.383 384 C 536.173 384, 536 385.125, 536 386.500 M 518.079 386.583 C 518.127 387.748, 518.364 387.985, 518.683 387.188 C 518.972 386.466, 518.936 385.603, 518.604 385.271 C 518.272 384.939, 518.036 385.529, 518.079 386.583 M 602.079 386.583 C 602.127 387.748, 602.364 387.985, 602.683 387.188 C 602.972 386.466, 602.936 385.603, 602.604 385.271 C 602.272 384.939, 602.036 385.529, 602.079 386.583 M 552.079 387.583 C 552.127 388.748, 552.364 388.985, 552.683 388.188 C 552.972 387.466, 552.936 386.603, 552.604 386.271 C 552.272 385.939, 552.036 386.529, 552.079 387.583 M 536.158 393 C 536.158 394.375, 536.385 394.938, 536.662 394.250 C 536.940 393.563, 536.940 392.438, 536.662 391.750 C 536.385 391.063, 536.158 391.625, 536.158 393 M 583.079 393.583 C 583.127 394.748, 583.364 394.985, 583.683 394.188 C 583.972 393.466, 583.936 392.603, 583.604 392.271 C 583.272 391.939, 583.036 392.529, 583.079 393.583 M 603.722 396.050 C 604.944 397.337, 606.138 398.189, 606.374 397.944 C 606.611 397.700, 605.611 396.648, 604.152 395.606 L 601.500 393.712 603.722 396.050 M 554.226 396.579 C 555.176 397.570, 556.168 398.166, 556.431 397.903 C 556.694 397.640, 555.917 396.829, 554.705 396.100 C 552.598 394.835, 552.577 394.857, 554.226 396.579 M 530 397.189 C 530 397.635, 533.150 398, 537 398 C 540.850 398, 544 397.631, 544 397.180 C 544 396.729, 540.850 396.364, 537 396.368 C 533.150 396.373, 530 396.742, 530 397.189 M 578 397.231 C 578 397.654, 580.925 398, 584.500 398 C 588.075 398, 590.999 397.663, 590.999 397.250 C 590.998 396.837, 588.073 396.491, 584.499 396.481 C 580.924 396.470, 578 396.808, 578 397.231 M 509 398 C 509 398.550, 509.477 399, 510.059 399 C 510.641 399, 510.840 398.550, 510.500 398 C 510.160 397.450, 509.684 397, 509.441 397 C 509.198 397, 509 397.450, 509 398 M 529.669 417.045 C 523.190 422.142, 523.478 439.719, 530.117 444.369 C 534.872 447.700, 541.930 445.776, 544.452 440.460 C 546.463 436.221, 546.495 424.857, 544.506 421.011 C 541.386 414.978, 534.603 413.165, 529.669 417.045 M 579.127 417.096 C 575.942 420.063, 574.805 423.589, 574.776 430.585 C 574.733 440.712, 578.554 446, 585.912 446 C 593.684 446, 598.193 434.436, 594.960 422.795 C 592.961 415.597, 584.143 412.423, 579.127 417.096 M 605.306 416.498 C 599.860 420.313, 598.304 435.902, 602.771 441.903 C 607.007 447.594, 615.841 447.182, 619.363 441.130 C 623.448 434.112, 621.445 418.914, 616.055 416.030 C 613.255 414.531, 607.774 414.770, 605.306 416.498 M 632.250 416.789 C 627.825 418.026, 627 418.625, 627 420.603 C 627 422.698, 627.335 422.883, 630.126 422.325 L 633.252 421.700 632.814 428.585 L 632.375 435.470 635.248 429.296 C 637.234 425.028, 638.025 421.917, 637.810 419.222 L 637.500 415.323 632.250 416.789 M 507.344 417.220 C 505.200 417.910, 504.039 419.016, 503.723 420.669 C 503.298 422.893, 503.504 423.048, 506.129 422.472 L 509 421.841 509 431.421 C 509 440.972, 508.993 441, 506.500 441 C 504.574 441, 504 441.517, 504 443.250 C 504 445.383, 504.389 445.500, 511.500 445.500 C 518.611 445.500, 519 445.383, 519 443.250 C 519 441.517, 518.426 441, 516.500 441 L 514 441 514 428.500 C 514 414.685, 514.195 415.015, 507.344 417.220 M 556 417.410 C 553.620 418.266, 552.394 419.392, 552.168 420.932 C 551.867 422.980, 552.128 423.131, 554.918 422.518 L 558 421.841 558 431.421 C 558 440.972, 557.993 441, 555.500 441 C 553.575 441, 552.999 441.517, 552.998 443.250 C 552.995 445.423, 553.268 445.489, 560.998 445.174 C 568.115 444.884, 569 444.635, 569 442.924 C 569 441.538, 568.300 441, 566.500 441 L 564 441 564 428.500 C 564 416.181, 563.967 416.001, 561.750 416.076 C 560.513 416.118, 557.925 416.718, 556 417.410 M 609.750 416.662 C 610.438 416.940, 611.563 416.940, 612.250 416.662 C 612.938 416.385, 612.375 416.158, 611 416.158 C 609.625 416.158, 609.063 416.385, 609.750 416.662 M 509.500 418 C 507.815 418.724, 507.773 418.870, 509.231 418.930 C 511.415 419.018, 511.928 421.291, 512.295 432.500 C 512.552 440.375, 512.614 439.969, 512.794 429.250 C 512.907 422.512, 512.663 417.032, 512.250 417.070 C 511.837 417.109, 510.600 417.527, 509.500 418 M 615 417.378 C 615 417.585, 615.788 418.373, 616.750 419.128 C 618.336 420.371, 618.371 420.336, 617.128 418.750 C 615.821 417.084, 615 416.555, 615 417.378 M 635.393 418.471 C 635.755 420.937, 637 421.476, 637 419.167 C 637 417.975, 636.590 417, 636.088 417 C 635.587 417, 635.274 417.662, 635.393 418.471 M 556.490 419.016 C 556.144 419.575, 555.443 419.774, 554.931 419.457 C 554.419 419.141, 554 419.359, 554 419.941 C 554 421.410, 555.269 421.264, 557.559 419.532 C 558.626 418.724, 558.964 418.049, 558.309 418.032 C 557.654 418.014, 556.835 418.457, 556.490 419.016 M 630.490 419.016 C 630.144 419.575, 629.443 419.774, 628.931 419.457 C 628.419 419.141, 628 419.359, 628 419.941 C 628 421.454, 630.289 421.248, 632.559 419.532 C 634.257 418.247, 634.288 418.060, 632.809 418.032 C 631.879 418.014, 630.835 418.457, 630.490 419.016 M 505 420 C 505 420.550, 505.702 421, 506.559 421 C 507.416 421, 507.840 420.550, 507.500 420 C 507.160 419.450, 506.459 419, 505.941 419 C 505.423 419, 505 419.450, 505 420 M 541.564 420.293 C 541.940 421.279, 542.499 421.834, 542.807 421.526 C 543.115 421.219, 542.808 420.412, 542.124 419.733 C 541.136 418.753, 541.022 418.868, 541.564 420.293 M 532.161 422.547 C 530.582 426.011, 530.679 437.178, 532.306 439.404 C 533.109 440.502, 534.554 441.057, 536.055 440.845 C 540.540 440.212, 542.381 428.317, 538.978 421.960 C 537.455 419.114, 533.572 419.448, 532.161 422.547 M 582.008 421.490 C 580.166 423.710, 579.631 434.991, 581.225 438 C 582.996 441.341, 586.373 441.734, 588.403 438.834 C 590.215 436.248, 590.581 426.659, 589.025 422.565 C 587.911 419.635, 584.040 419.042, 582.008 421.490 M 607.597 422.166 C 605.686 424.893, 605.438 434.673, 607.183 438.502 C 608.721 441.878, 612.900 441.600, 614.712 438 C 616.333 434.779, 616.332 426.218, 614.710 423 C 613.027 419.661, 609.630 419.262, 607.597 422.166 M 634 425.441 C 634 428.505, 634.570 428.753, 635.289 426.001 C 635.577 424.902, 635.404 423.750, 634.906 423.442 C 634.408 423.134, 634 424.034, 634 425.441 M 510.232 429 C 510.232 430.925, 510.438 431.712, 510.689 430.750 C 510.941 429.788, 510.941 428.212, 510.689 427.250 C 510.438 426.288, 510.232 427.075, 510.232 429 M 528.079 427.583 C 528.127 428.748, 528.364 428.985, 528.683 428.188 C 528.972 427.466, 528.936 426.603, 528.604 426.271 C 528.272 425.939, 528.036 426.529, 528.079 427.583 M 527.090 436.694 C 527.041 437.901, 528.094 440.151, 529.430 441.694 C 531.436 444.010, 532.091 444.271, 533.180 443.191 C 534.271 442.109, 534.189 442, 532.709 442.563 C 531.724 442.938, 530.990 442.853, 531.078 442.373 C 531.165 441.893, 531.177 440.825, 531.103 440 C 530.988 438.712, 530.841 438.703, 530.061 439.935 C 529.370 441.027, 528.917 440.549, 528.167 437.935 C 527.468 435.500, 527.154 435.139, 527.090 436.694 M 540.564 438.707 C 540.022 440.132, 540.136 440.247, 541.124 439.267 C 541.808 438.588, 542.115 437.781, 541.807 437.474 C 541.499 437.166, 540.940 437.721, 540.564 438.707 M 489.480 442.980 C 489.708 446.068, 491 446.652, 491 443.667 C 491 442.200, 490.625 441, 490.167 441 C 489.709 441, 489.400 441.891, 489.480 442.980 M 589.352 441.760 C 589.715 442.348, 589.447 443.057, 588.756 443.336 C 587.857 443.698, 587.839 443.865, 588.691 443.921 C 590.412 444.035, 591.239 442.265, 589.862 441.415 C 589.164 440.983, 588.958 441.123, 589.352 441.760 M 604 441.378 C 604 441.585, 604.788 442.373, 605.750 443.128 C 607.336 444.371, 607.371 444.336, 606.128 442.750 C 604.821 441.084, 604 440.555, 604 441.378 M 627 442.500 C 627 443.325, 627.177 444, 627.393 444 C 627.609 444, 628.045 443.325, 628.362 442.500 C 628.678 441.675, 628.501 441, 627.969 441 C 627.436 441, 627 441.675, 627 442.500 M 515.500 443 C 513.592 443.820, 513.603 443.863, 515.750 443.930 C 516.987 443.968, 518 443.550, 518 443 C 518 442.450, 517.888 442.032, 517.750 442.070 C 517.612 442.109, 516.600 442.527, 515.500 443 M 580.014 443.414 C 580.662 444.062, 581.338 444.062, 581.986 443.414 C 582.633 442.767, 582.295 442.429, 581 442.429 C 579.705 442.429, 579.367 442.767, 580.014 443.414 M 509.269 443.693 C 510.242 443.947, 511.592 443.930, 512.269 443.656 C 512.946 443.382, 512.150 443.175, 510.500 443.195 C 508.850 443.215, 508.296 443.439, 509.269 443.693 M 534.475 444.040 C 534.054 444.722, 534.808 444.846, 536.666 444.399 C 540.498 443.479, 540.860 443, 537.726 443 C 536.291 443, 534.829 443.468, 534.475 444.040 M 558.768 443.725 C 560.565 443.947, 563.265 443.943, 564.768 443.715 C 566.271 443.486, 564.800 443.304, 561.500 443.310 C 558.200 443.315, 556.971 443.502, 558.768 443.725 M 504.180 461.211 C 495.727 463.458, 494.214 484.834, 502.117 490.369 C 507.188 493.921, 514.025 491.577, 516.606 485.401 C 519.318 478.909, 517.755 464.821, 514.069 462.543 C 511.487 460.947, 507.296 460.382, 504.180 461.211 M 478.755 462.846 C 476.137 464.002, 475.009 465.136, 475.005 466.611 C 475.001 468.325, 475.471 468.633, 477.500 468.245 L 480 467.767 480 477.383 C 480 486.974, 479.993 487, 477.500 487 C 475.667 487, 475 487.533, 475 489 C 475 490.833, 475.667 491, 483 491 C 490.333 491, 491 490.833, 491 489 C 491 487.533, 490.333 487, 488.500 487 L 486 487 486 474 C 486 459.433, 486.108 459.599, 478.755 462.846 M 529.150 463.340 C 525.236 467.506, 523.885 476.445, 526.011 484.100 C 527.313 488.787, 529.920 491.045, 534.781 491.697 C 538.137 492.148, 539.207 491.787, 542.052 489.245 C 545.073 486.545, 545.428 485.639, 545.809 479.653 C 546.359 471.018, 545.502 466.834, 542.525 463.622 C 539.215 460.050, 532.376 459.906, 529.150 463.340 M 557.750 462.771 C 553.949 464.035, 553 464.803, 553 466.613 C 553 468.606, 553.385 468.811, 556.250 468.345 L 559.500 467.815 559.181 477.407 C 558.869 486.813, 558.815 487, 556.431 487 C 554.667 487, 554 487.548, 554 489 C 554 490.833, 554.667 491, 562 491 C 569.333 491, 570 490.833, 570 489 C 570 487.533, 569.333 487, 567.500 487 L 565 487 565 474 C 565 459.579, 565.415 460.222, 557.750 462.771 M 580.250 462.839 C 576.979 464.070, 576 464.958, 576 466.694 C 576 468.667, 576.376 468.875, 579 468.350 L 582 467.750 582 477.375 C 582 486.152, 581.833 487, 580.107 487 C 579.066 487, 577.955 487.675, 577.638 488.500 C 576.859 490.531, 577.475 490.410, 582.865 487.480 L 587.500 484.959 587.191 472.980 C 586.852 459.838, 587.134 460.250, 580.250 462.839 M 603.750 462.080 C 601.477 463.404, 599.431 467.536, 598.699 472.278 L 598.117 476.055 601.007 473.778 C 602.597 472.525, 604.182 470.696, 604.528 469.712 C 604.875 468.729, 606.885 466.835, 608.995 465.503 C 611.105 464.171, 613.121 462.613, 613.475 462.041 C 614.320 460.673, 606.109 460.706, 603.750 462.080 M 508 462.393 C 508 462.609, 508.698 463.054, 509.552 463.382 C 510.442 463.723, 510.843 463.555, 510.493 462.989 C 509.906 462.038, 508 461.583, 508 462.393 M 608.813 462.683 C 609.534 462.972, 610.397 462.936, 610.729 462.604 C 611.061 462.272, 610.471 462.036, 609.417 462.079 C 608.252 462.127, 608.015 462.364, 608.813 462.683 M 539 463.393 C 539 463.609, 539.698 464.054, 540.552 464.382 C 541.442 464.723, 541.843 464.555, 541.493 463.989 C 540.906 463.038, 539 462.583, 539 463.393 M 477.029 464.961 C 476.220 465.473, 475.863 466.196, 476.236 466.569 C 477.151 467.484, 480 466.320, 480 465.031 C 480 463.761, 478.965 463.737, 477.029 464.961 M 504.338 467.608 C 503.166 469.395, 502.647 472.172, 502.687 476.436 C 502.762 484.321, 504.199 487.228, 507.817 486.810 C 509.951 486.563, 510.773 485.681, 511.834 482.500 C 514.250 475.255, 511.633 465, 507.368 465 C 506.641 465, 505.277 466.173, 504.338 467.608 M 532.557 467.223 C 530.746 469.807, 530.390 481.992, 532.035 485.066 C 532.638 486.191, 534.122 487, 535.586 487 C 539.176 487, 541.418 481.341, 540.676 474.154 C 539.840 466.052, 535.795 462.599, 532.557 467.223 M 555 466.059 C 555 466.641, 555.450 466.840, 556 466.500 C 556.550 466.160, 557 465.684, 557 465.441 C 557 465.198, 556.550 465, 556 465 C 555.450 465, 555 465.477, 555 466.059 M 577.500 466 C 577.160 466.550, 577.359 467, 577.941 467 C 578.523 467, 579 466.550, 579 466 C 579 465.450, 578.802 465, 578.559 465 C 578.316 465, 577.840 465.450, 577.500 466 M 585.195 467.500 C 585.215 469.150, 585.439 469.704, 585.693 468.731 C 585.947 467.758, 585.930 466.408, 585.656 465.731 C 585.382 465.054, 585.175 465.850, 585.195 467.500 M 514.079 473.583 C 514.127 474.748, 514.364 474.985, 514.683 474.188 C 514.972 473.466, 514.936 472.603, 514.604 472.271 C 514.272 471.939, 514.036 472.529, 514.079 473.583 M 542.272 476 C 542.272 478.475, 542.467 479.488, 542.706 478.250 C 542.944 477.012, 542.944 474.988, 542.706 473.750 C 542.467 472.512, 542.272 473.525, 542.272 476 M 477 489 C 477 489.550, 477.927 490, 479.059 490 C 480.191 490, 480.840 489.550, 480.500 489 C 480.160 488.450, 479.234 488, 478.441 488 C 477.648 488, 477 488.450, 477 489 M 502.613 489.183 C 502.902 489.650, 503.557 489.774, 504.069 489.457 C 505.377 488.649, 505.230 488.333, 503.544 488.333 C 502.743 488.333, 502.324 488.716, 502.613 489.183 M 555.999 489.250 C 556 489.663, 559 490, 562.667 490 C 566.333 490, 569.059 489.726, 568.725 489.391 C 567.832 488.499, 555.999 488.368, 555.999 489.250 M 483.762 489.707 C 485.006 489.946, 486.806 489.937, 487.762 489.687 C 488.718 489.437, 487.700 489.241, 485.500 489.252 C 483.300 489.263, 482.518 489.468, 483.762 489.707 M 438.494 566.594 C 451.473 578.930, 478.442 595.303, 503.423 606.013 C 518.382 612.426, 549.512 622.993, 553.500 623.010 C 556.673 623.024, 580 615.949, 580 614.973 C 580 614.658, 576.228 613.855, 571.618 613.189 C 552.429 610.414, 512.799 598.920, 486.500 588.502 C 471.409 582.523, 451.060 572.395, 440 565.357 L 431.500 559.948 438.494 566.594 M 514 769.500 L 514 839 525.983 839 L 537.965 839 538.233 814.412 L 538.500 789.824 554.500 812.577 C 563.300 825.091, 570.906 836.156, 571.403 837.165 C 572.216 838.819, 573.733 839, 586.747 839 L 601.188 839 597.411 833.750 C 574.220 801.516, 562.080 783.672, 562.665 782.681 C 563.391 781.451, 579.721 761.163, 590.782 747.750 L 597.173 740 583.705 740 L 570.237 740 554.368 759.978 L 538.500 779.956 538.239 739.978 L 537.977 700 525.989 700 L 514 700 514 769.500 M 128 772.500 L 128 839 140.500 839 L 153 839 153 810.500 L 153 782 181 782 L 209 782 209 810.500 L 209 839 221.500 839 L 234 839 234 772.500 L 234 706 221.500 706 L 209 706 209 732 L 209 758 181 758 L 153 758 153 732 L 153 706 140.500 706 L 128 706 128 772.500 M 615 772.500 L 615 839 657 839 L 699 839 699 827.500 L 699 816 669.093 816 L 639.185 816 639.593 804.964 C 639.817 798.895, 640 791.470, 640 788.464 L 640 783 664.934 783 L 689.867 783 690.184 772.998 L 690.500 762.996 665 762.998 L 639.500 762.999 639.500 746 L 639.500 729 667.750 729 L 696 729 696 717.500 L 696 706 655.500 706 L 615 706 615 772.500 M 285.500 737.419 C 284.950 737.630, 282.025 738.553, 279 739.471 C 275.975 740.388, 271.089 742.570, 268.143 744.320 L 262.786 747.500 263.471 756.995 C 263.848 762.217, 264.317 766.650, 264.513 766.846 C 264.708 767.042, 266.447 765.998, 268.375 764.527 C 273.182 760.861, 280.605 758.198, 288.164 757.427 C 303.314 755.883, 312 763.177, 312 777.443 L 312 781 299.049 781 C 291.926 781, 283.714 781.502, 280.799 782.115 C 269.162 784.562, 259.625 791.122, 255.477 799.533 C 254.027 802.473, 253.522 805.571, 253.525 811.500 C 253.533 824.517, 258.824 833.417, 269.382 838.172 C 273.561 840.054, 276.244 840.480, 284 840.489 C 292.139 840.498, 294.288 840.130, 299 837.919 C 302.025 836.500, 306.250 833.687, 308.390 831.669 C 310.529 829.651, 312.329 827.999, 312.390 827.999 C 312.450 827.998, 312.346 830.473, 312.157 833.499 L 311.815 839 323.473 839 L 335.131 839 334.795 801.750 C 334.465 765.267, 334.409 764.378, 332.083 758.551 C 328.908 750.600, 322.563 743.978, 314.734 740.447 C 309.331 738.009, 307.034 737.594, 297.500 737.335 C 291.450 737.170, 286.050 737.208, 285.500 737.419 M 840.762 738.886 C 818.997 746.054, 806.678 766.763, 808.273 793.498 C 809.934 821.342, 826.777 839.502, 852.867 841.581 C 866.521 842.669, 883.429 837.400, 890.645 829.809 L 893.789 826.500 890.640 818.422 L 887.491 810.345 882.996 813.668 C 870.264 823.081, 849.917 823.328, 839.783 814.194 C 835.324 810.173, 831.025 802.117, 831.010 797.750 L 831 795 863 795 L 895 795 894.985 785.250 C 894.951 762.817, 886.811 747.416, 871.175 740.202 C 863.523 736.672, 849.349 736.058, 840.762 738.886 M 345 740.634 C 345 741.152, 359.344 788.491, 371.927 829.500 L 374.688 838.500 387.738 838.778 L 400.788 839.057 402.841 832.278 C 403.970 828.550, 408.296 813.834, 412.455 799.576 C 416.613 785.317, 420.150 773.516, 420.315 773.352 C 420.480 773.187, 421.623 776.528, 422.855 780.776 C 424.088 785.024, 428.524 799.862, 432.714 813.750 L 440.333 839 453.085 839 L 465.837 839 467.855 832.750 C 468.964 829.313, 474.875 810.300, 480.989 790.500 C 487.103 770.700, 493.176 751.237, 494.484 747.250 L 496.863 740 484.620 740 L 472.377 740 465.744 763.250 C 462.097 776.038, 457.893 791.225, 456.402 797 C 454.912 802.775, 453.380 807.858, 453 808.297 C 452.619 808.735, 449.758 800.185, 446.643 789.297 C 443.527 778.408, 439.017 762.975, 436.620 755 L 432.262 740.500 420.785 740.220 L 409.308 739.939 400.688 768.220 C 395.946 783.774, 391.303 799.313, 390.370 802.750 C 389.436 806.188, 388.296 809, 387.836 809 C 387.376 809, 387.015 808.438, 387.033 807.750 C 387.051 807.063, 383.115 791.538, 378.287 773.250 L 369.507 740 357.254 740 C 350.514 740, 345 740.285, 345 740.634 M 706.956 745.250 C 709.010 751.085, 723.714 789.857, 735.403 820.259 C 739.581 831.127, 743 840.478, 743 841.038 C 743 841.598, 741.693 844.632, 740.094 847.779 C 735.146 857.522, 729.919 861, 720.220 861 L 715.928 861 716.214 870.750 L 716.500 880.500 726.500 880.449 C 734.875 880.406, 737.281 880.018, 741.309 878.061 C 748.747 874.447, 754.486 867.984, 759.442 857.640 C 763.180 849.838, 804 742.660, 804 740.647 C 804 740.258, 798.303 740.066, 791.339 740.220 L 778.679 740.500 775.793 749 C 774.206 753.675, 769.364 768.750, 765.032 782.500 C 760.701 796.250, 756.748 808.583, 756.249 809.907 C 755.492 811.910, 753.275 806.245, 743.040 776.157 L 730.739 740 717.924 740 L 705.108 740 706.956 745.250 M 844.007 758.593 C 842.086 759.426, 839.439 761.096, 838.125 762.304 C 835.098 765.085, 831.023 773.647, 831.010 777.250 L 831 780 852.636 780 L 874.272 780 873.655 775.497 C 872.959 770.425, 870.152 764.349, 867.320 761.788 C 862.175 757.135, 850.924 755.593, 844.007 758.593 M 299.500 796.014 C 285.912 796.596, 281.026 798.270, 277.886 803.420 C 273.893 809.967, 276.724 818.764, 283.548 821.016 C 290.843 823.423, 302.081 819.741, 308.797 812.743 C 311.960 809.447, 312.082 809.028, 311.797 802.404 L 311.500 795.500 299.500 796.014" stroke="none" fill="#000000" fill-rule="evenodd"/>
</svg>